<mxfile host="app.diagrams.net" modified="2024-05-07T15:27:43.279Z" agent="Mozilla/5.0 (Macintosh; Intel Mac OS X 10_15_7) AppleWebKit/605.1.15 (KHTML, like Gecko) Version/16.5.2 Safari/605.1.15" version="24.3.0" etag="Egg4rf7-7giVLFPS3x0J" type="github">
  <diagram name="Seite-1" id="pr90PvCpoRf9waOl_Rgw">
    <mxGraphModel>
      <root>
        <mxCell id="0" />
        <mxCell id="1" parent="0" />
      </root>
    </mxGraphModel>
  </diagram>
</mxfile>
